<svg xmlns="http://www.w3.org/2000/svg" width="36" height="36" viewBox="0 0 36 36" fill="none">
<path d="M22.5 23.625C22.5 24.2466 21.9966 24.75 21.375 24.75H14.625C14.0034 24.75 13.5 24.2466 13.5 23.625V20.25H0V30.375C0 32.175 1.575 33.75 3.375 33.75H32.625C34.425 33.75 36 32.175 36 30.375V20.25H22.5V23.625ZM32.625 9H27V5.625C27 3.825 25.425 2.25 23.625 2.25H12.375C10.575 2.25 9 3.825 9 5.625V9H3.375C1.575 9 0 10.575 0 12.375V18H36V12.375C36 10.575 34.425 9 32.625 9ZM22.5 9H13.5V6.75H22.5V9Z" fill="#00A7AC"/>
</svg>