<svg xmlns="http://www.w3.org/2000/svg" width="36" height="36" viewBox="0 0 36 36" fill="none">
<path d="M3.09375 13.5H32.9062C33.3703 13.5 33.75 13.8797 33.75 14.3438V32.625C33.75 34.4883 32.2383 36 30.375 36H5.625C3.76172 36 2.25 34.4883 2.25 32.625V14.3438C2.25 13.8797 2.62969 13.5 3.09375 13.5ZM33.75 10.4062V7.875C33.75 6.01172 32.2383 4.5 30.375 4.5H27V0.84375C27 0.379688 26.6203 0 26.1562 0H23.3438C22.8797 0 22.5 0.379688 22.5 0.84375V4.5H13.5V0.84375C13.5 0.379688 13.1203 0 12.6562 0H9.84375C9.37969 0 9 0.379688 9 0.84375V4.5H5.625C3.76172 4.5 2.25 6.01172 2.25 7.875V10.4062C2.25 10.8703 2.62969 11.25 3.09375 11.25H32.9062C33.3703 11.25 33.75 10.8703 33.75 10.4062Z" fill="#00A7AC"/>
</svg>