<svg xmlns="http://www.w3.org/2000/svg" width="155" height="54" viewBox="0 0 155 54" fill="none">
  <g clip-path="url(#clip0_271_4091)">
    <path d="M22.8112 53.492C22.7632 53.504 22.7212 53.474 22.6852 53.402C22.6492 53.342 22.6492 53.3 22.6852 53.276C23.2132 52.952 23.5912 52.46 23.8192 51.8C24.0472 51.152 24.1552 50.312 24.1432 49.28V40.208C24.1432 39.848 24.1072 39.584 24.0352 39.416C23.9632 39.248 23.8312 39.134 23.6392 39.074C23.4472 39.002 23.1532 38.966 22.7572 38.966C22.7212 38.966 22.7032 38.93 22.7032 38.858C22.7032 38.786 22.7212 38.75 22.7572 38.75L23.6212 38.768C24.1012 38.792 24.4972 38.804 24.8092 38.804C25.1572 38.804 25.5952 38.792 26.1232 38.768L26.9332 38.75C26.9692 38.75 26.9872 38.786 26.9872 38.858C26.9872 38.93 26.9692 38.966 26.9332 38.966C26.5372 38.966 26.2432 39.002 26.0512 39.074C25.8592 39.146 25.7272 39.272 25.6552 39.452C25.5952 39.62 25.5592 39.884 25.5472 40.244V48.794C25.5472 49.73 25.4572 50.486 25.2772 51.062C25.0972 51.65 24.8152 52.13 24.4312 52.502C24.0472 52.874 23.5072 53.204 22.8112 53.492ZM31.0345 50.252C30.3865 50.252 29.8225 50.096 29.3425 49.784C28.8745 49.472 28.5145 49.046 28.2625 48.506C28.0105 47.966 27.8845 47.366 27.8845 46.706C27.8845 45.962 28.0345 45.296 28.3345 44.708C28.6465 44.12 29.0725 43.658 29.6125 43.322C30.1525 42.986 30.7645 42.818 31.4485 42.818C32.4085 42.818 33.1765 43.136 33.7525 43.772C34.3285 44.396 34.6165 45.242 34.6165 46.31C34.6165 47.126 34.4485 47.834 34.1125 48.434C33.7885 49.022 33.3505 49.472 32.7985 49.784C32.2585 50.096 31.6705 50.252 31.0345 50.252ZM31.5925 49.802C32.1325 49.802 32.5645 49.562 32.8885 49.082C33.2245 48.59 33.3925 47.924 33.3925 47.084C33.3925 46.424 33.2845 45.8 33.0685 45.212C32.8525 44.624 32.5585 44.15 32.1865 43.79C31.8145 43.43 31.3945 43.25 30.9265 43.25C30.3985 43.25 29.9605 43.484 29.6125 43.952C29.2765 44.408 29.1085 45.056 29.1085 45.896C29.1085 46.556 29.2165 47.186 29.4325 47.786C29.6485 48.386 29.9425 48.872 30.3145 49.244C30.6985 49.616 31.1245 49.802 31.5925 49.802ZM41.0189 42.818C41.6309 42.818 42.1229 43.07 42.4949 43.574C42.8789 44.066 43.0709 44.702 43.0709 45.482C43.0709 46.454 42.8369 47.3 42.3689 48.02C41.9129 48.74 41.3429 49.292 40.6589 49.676C39.9749 50.048 39.3149 50.234 38.6789 50.234C37.9589 50.234 37.3829 50.084 36.9509 49.784C36.5309 49.484 36.3269 49.076 36.3389 48.56L36.4469 39.02C36.4709 38.408 36.2789 38.102 35.8709 38.102C35.6429 38.102 35.3489 38.192 34.9889 38.372H34.9709C34.9109 38.372 34.8749 38.342 34.8629 38.282C34.8389 38.21 34.8509 38.168 34.8989 38.156L37.3829 36.95H37.4189C37.4669 36.95 37.5149 36.968 37.5629 37.004C37.6109 37.04 37.6349 37.07 37.6349 37.094L37.5989 46.004C37.8629 45.056 38.3009 44.288 38.9129 43.7C39.5369 43.112 40.2389 42.818 41.0189 42.818ZM39.3629 49.766C39.7829 49.766 40.1729 49.616 40.5329 49.316C40.8929 49.016 41.1809 48.584 41.3969 48.02C41.6129 47.456 41.7149 46.796 41.7029 46.04C41.7149 45.356 41.6009 44.804 41.3609 44.384C41.1329 43.964 40.7729 43.754 40.2809 43.754C39.7649 43.754 39.3029 43.94 38.8949 44.312C38.4989 44.684 38.1809 45.212 37.9409 45.896C37.7129 46.568 37.5989 47.342 37.5989 48.218V48.272C37.5989 48.704 37.7669 49.064 38.1029 49.352C38.4389 49.628 38.8589 49.766 39.3629 49.766ZM48.6155 50C48.5795 50 48.5555 49.964 48.5435 49.892C48.5435 49.82 48.5675 49.784 48.6155 49.784C49.0235 49.784 49.3175 49.754 49.4975 49.694C49.6895 49.634 49.8215 49.52 49.8935 49.352C49.9655 49.172 50.0015 48.902 50.0015 48.542V40.208C49.9895 39.848 49.9475 39.584 49.8755 39.416C49.8035 39.248 49.6715 39.134 49.4795 39.074C49.2995 39.002 49.0115 38.966 48.6155 38.966C48.5795 38.966 48.5555 38.93 48.5435 38.858C48.5435 38.786 48.5675 38.75 48.6155 38.75L49.4435 38.768C49.9235 38.792 50.3195 38.804 50.6315 38.804C50.9075 38.804 51.1415 38.798 51.3335 38.786C51.5375 38.774 51.7055 38.762 51.8375 38.75C52.2575 38.714 52.6595 38.696 53.0435 38.696C54.2075 38.696 55.1675 38.948 55.9235 39.452C56.6795 39.956 57.0575 40.694 57.0575 41.666C57.0575 42.458 56.8415 43.13 56.4095 43.682C55.9775 44.222 55.4375 44.624 54.7895 44.888C54.1415 45.152 53.4935 45.284 52.8455 45.284C52.4855 45.284 52.2035 45.254 51.9995 45.194C51.9755 45.194 51.9635 45.158 51.9635 45.086C51.9635 45.05 51.9695 45.008 51.9815 44.96C52.0055 44.912 52.0295 44.894 52.0535 44.906C52.2095 44.954 52.4015 44.978 52.6295 44.978C53.4215 44.978 54.0935 44.726 54.6455 44.222C55.2095 43.718 55.4915 42.986 55.4915 42.026C55.4915 41.414 55.3595 40.88 55.0955 40.424C54.8315 39.956 54.4835 39.602 54.0515 39.362C53.6315 39.122 53.1815 39.002 52.7015 39.002C52.3175 39.002 52.0355 39.032 51.8555 39.092C51.6875 39.14 51.5675 39.248 51.4955 39.416C51.4355 39.584 51.3995 39.86 51.3875 40.244L51.4055 48.542C51.4055 48.902 51.4355 49.172 51.4955 49.352C51.5675 49.52 51.6935 49.634 51.8735 49.694C52.0655 49.754 52.3595 49.784 52.7555 49.784C52.7915 49.784 52.8095 49.82 52.8095 49.892C52.8095 49.964 52.7915 50 52.7555 50C52.3955 50 52.1135 49.994 51.9095 49.982L50.6675 49.964L49.4615 49.982C49.2575 49.994 48.9755 50 48.6155 50ZM61.0052 50.252C60.3572 50.252 59.7932 50.096 59.3132 49.784C58.8452 49.472 58.4852 49.046 58.2332 48.506C57.9812 47.966 57.8552 47.366 57.8552 46.706C57.8552 45.962 58.0052 45.296 58.3052 44.708C58.6172 44.12 59.0432 43.658 59.5832 43.322C60.1232 42.986 60.7352 42.818 61.4192 42.818C62.3792 42.818 63.1472 43.136 63.7232 43.772C64.2992 44.396 64.5872 45.242 64.5872 46.31C64.5872 47.126 64.4192 47.834 64.0832 48.434C63.7592 49.022 63.3212 49.472 62.7692 49.784C62.2292 50.096 61.6412 50.252 61.0052 50.252ZM61.5632 49.802C62.1032 49.802 62.5352 49.562 62.8592 49.082C63.1952 48.59 63.3632 47.924 63.3632 47.084C63.3632 46.424 63.2552 45.8 63.0392 45.212C62.8232 44.624 62.5292 44.15 62.1572 43.79C61.7852 43.43 61.3652 43.25 60.8972 43.25C60.3692 43.25 59.9312 43.484 59.5832 43.952C59.2472 44.408 59.0792 45.056 59.0792 45.896C59.0792 46.556 59.1872 47.186 59.4032 47.786C59.6192 48.386 59.9132 48.872 60.2852 49.244C60.6692 49.616 61.0952 49.802 61.5632 49.802ZM70.0176 42.872C70.3056 42.872 70.5816 42.962 70.8456 43.142C71.1216 43.322 71.2656 43.526 71.2776 43.754C71.2776 43.934 71.2056 44.102 71.0616 44.258C70.9176 44.414 70.7556 44.492 70.5756 44.492C70.4436 44.492 70.3356 44.474 70.2516 44.438C70.1796 44.39 70.0836 44.318 69.9636 44.222C69.8076 44.09 69.6636 44.024 69.5316 44.024C69.2676 44.024 69.0156 44.354 68.7756 45.014C68.5356 45.674 68.3376 46.466 68.1816 47.39C68.0256 48.314 67.9416 49.13 67.9296 49.838C67.9296 49.934 67.8696 50.006 67.7496 50.054C67.6296 50.114 67.4496 50.144 67.2096 50.144C66.9696 50.144 66.8196 50.126 66.7596 50.09C66.7116 50.066 66.6876 50.018 66.6876 49.946C66.6876 49.802 66.6936 49.676 66.7056 49.568L66.7236 48.668L66.7416 45.122C66.7536 44.138 66.5496 43.646 66.1296 43.646C65.9616 43.646 65.7816 43.706 65.5896 43.826C65.4096 43.946 65.2296 44.114 65.0496 44.33C65.0376 44.342 65.0196 44.348 64.9956 44.348C64.9596 44.348 64.9296 44.33 64.9056 44.294C64.8696 44.258 64.8576 44.222 64.8696 44.186C65.1936 43.766 65.5296 43.448 65.8776 43.232C66.2256 43.004 66.5616 42.89 66.8856 42.89C67.2576 42.89 67.5276 43.046 67.6956 43.358C67.8756 43.658 67.9656 44.216 67.9656 45.032L67.9476 47.066C68.1276 45.854 68.3916 44.852 68.7396 44.06C69.0876 43.268 69.5136 42.872 70.0176 42.872ZM77.6886 43.07C77.7366 43.07 77.7726 43.088 77.7966 43.124C77.8326 43.16 77.8506 43.196 77.8506 43.232C77.8386 43.388 77.7606 43.562 77.6166 43.754C77.4846 43.946 77.3466 44.03 77.2026 44.006L76.8246 43.952C75.7926 43.796 74.9526 43.706 74.3046 43.682L74.2866 48.092C74.2866 48.56 74.3826 48.902 74.5746 49.118C74.7666 49.334 75.0726 49.442 75.4926 49.442C76.0206 49.442 76.5426 49.238 77.0586 48.83H77.0766C77.1246 48.83 77.1666 48.854 77.2026 48.902C77.2386 48.938 77.2386 48.962 77.2026 48.974C76.7586 49.418 76.3386 49.736 75.9426 49.928C75.5466 50.12 75.1446 50.216 74.7366 50.216C74.2446 50.216 73.8366 50.09 73.5126 49.838C73.2006 49.586 73.0506 49.16 73.0626 48.56L73.0806 44.492C73.0806 44.192 73.0566 43.982 73.0086 43.862C72.9726 43.73 72.8946 43.64 72.7746 43.592C72.6546 43.544 72.4566 43.52 72.1806 43.52C72.1446 43.52 72.1266 43.478 72.1266 43.394C72.1266 43.31 72.1386 43.268 72.1626 43.268C72.6666 43.268 73.0686 43.136 73.3686 42.872C73.6806 42.596 73.8786 42.248 73.9626 41.828C73.9626 41.792 74.0106 41.774 74.1066 41.774C74.1546 41.774 74.1966 41.786 74.2326 41.81C74.2806 41.822 74.3046 41.834 74.3046 41.846V43.232C74.4966 43.232 75.3186 43.196 76.7706 43.124L77.6886 43.07ZM85.6737 48.614C85.6857 48.602 85.7037 48.596 85.7277 48.596C85.7637 48.596 85.7997 48.62 85.8357 48.668C85.8717 48.704 85.8837 48.734 85.8717 48.758C85.5237 49.226 85.1997 49.58 84.8997 49.82C84.5997 50.048 84.2937 50.162 83.9817 50.162C83.2497 50.162 82.8897 49.652 82.9017 48.632L82.9197 46.724C82.5597 47.792 82.0617 48.644 81.4257 49.28C80.8017 49.916 80.1357 50.234 79.4277 50.234C78.9597 50.234 78.5817 50.072 78.2937 49.748C78.0057 49.424 77.8617 48.92 77.8617 48.236C77.8617 47.408 78.0657 46.574 78.4737 45.734C78.8937 44.894 79.4277 44.198 80.0757 43.646C80.7357 43.094 81.4077 42.818 82.0917 42.818C82.3437 42.818 82.5957 42.86 82.8477 42.944C83.1117 43.016 83.3397 43.136 83.5317 43.304C83.7237 43.136 83.8557 42.932 83.9277 42.692C83.9277 42.668 83.9577 42.656 84.0177 42.656C84.1377 42.656 84.1857 42.674 84.1617 42.71L84.1257 48.398C84.1137 49.058 84.2697 49.388 84.5937 49.388C84.8817 49.388 85.2417 49.13 85.6737 48.614ZM82.8657 45.05C82.8657 44.594 82.7397 44.228 82.4877 43.952C82.2357 43.676 81.9057 43.538 81.4977 43.538C81.0417 43.538 80.6217 43.7 80.2377 44.024C79.8657 44.336 79.5717 44.78 79.3557 45.356C79.1397 45.92 79.0317 46.562 79.0317 47.282C79.0437 48.566 79.4157 49.208 80.1477 49.208C80.6157 49.208 81.0597 48.986 81.4797 48.542C81.8997 48.086 82.2357 47.534 82.4877 46.886C82.7397 46.226 82.8657 45.614 82.8657 45.05ZM88.1532 50.162C87.4092 50.162 87.0492 49.652 87.0732 48.632L87.1632 39.02C87.1872 38.408 87.0072 38.102 86.6232 38.102C86.4192 38.102 86.1252 38.192 85.7412 38.372H85.7232C85.6752 38.372 85.6392 38.342 85.6152 38.282C85.5912 38.222 85.6032 38.18 85.6512 38.156L88.1352 36.95H88.1712C88.2192 36.95 88.2612 36.968 88.2972 37.004C88.3452 37.04 88.3692 37.07 88.3692 37.094L88.3152 48.398C88.3032 49.058 88.4652 49.388 88.8012 49.388C89.0532 49.388 89.4072 49.13 89.8632 48.614C89.8752 48.602 89.8932 48.596 89.9172 48.596C89.9652 48.596 90.0072 48.62 90.0432 48.668C90.0912 48.704 90.1032 48.734 90.0792 48.758C89.7072 49.238 89.3772 49.592 89.0892 49.82C88.8012 50.048 88.4892 50.162 88.1532 50.162Z" fill="white"/>
    <path d="M10.166 49.2463L10.9486 48.4134" stroke="white" stroke-width="0.5" stroke-miterlimit="10" stroke-linecap="round" stroke-linejoin="round"/>
    <path d="M10.2612 47.6825L9.47852 48.5154" stroke="white" stroke-width="0.5" stroke-miterlimit="10" stroke-linecap="round" stroke-linejoin="round"/>
    <path d="M10.4941 50.6023H14.308C15.0988 50.6023 15.7399 49.92 15.7399 49.0784V48.2318" stroke="white" stroke-width="0.5" stroke-miterlimit="10" stroke-linecap="round" stroke-linejoin="round"/>
    <path d="M15.7398 42.2522V41.1515C15.7398 40.3099 15.0987 39.6277 14.3079 39.6277H2.43287C1.64207 39.6277 1.00098 40.3099 1.00098 41.1515V49.0784C1.00098 49.92 1.64207 50.6023 2.43287 50.6023H5.92653" stroke="white" stroke-width="0.5" stroke-miterlimit="10" stroke-linecap="round" stroke-linejoin="round"/>
    <path d="M1.00098 42.2114C1.00098 43.7364 2.16264 44.9727 3.59565 44.9727H3.62546" stroke="white" stroke-width="0.5" stroke-miterlimit="10" stroke-linecap="round" stroke-linejoin="round"/>
    <path d="M4.96387 44.9727H9.49019" stroke="white" stroke-width="0.5" stroke-miterlimit="10" stroke-linecap="round" stroke-linejoin="round"/>
    <path d="M8.18588 51.7637L10.1549 49.6682C10.2678 49.5481 10.2678 49.3534 10.1549 49.2333L9.49125 48.5271C9.37841 48.407 9.19549 48.407 9.08265 48.5271L7.11366 50.6226C6.81758 50.9377 6.81758 51.4486 7.11366 51.7637C7.40977 52.0788 7.8898 52.0788 8.18588 51.7637Z" stroke="white" stroke-width="0.5" stroke-miterlimit="10" stroke-linecap="round" stroke-linejoin="round"/>
    <path d="M8.64746 48.9892L9.71969 50.1303" stroke="white" stroke-width="0.5" stroke-miterlimit="10" stroke-linecap="round" stroke-linejoin="round"/>
    <path d="M15.8998 48.0714C14.4315 49.634 12.051 49.634 10.5827 48.0714C9.11437 46.5088 9.11437 43.9753 10.5827 42.4127C12.051 40.8501 14.4315 40.8501 15.8998 42.4127C17.3681 43.9753 17.3681 46.5088 15.8998 48.0714Z" stroke="white" stroke-width="0.5" stroke-miterlimit="10" stroke-linecap="round" stroke-linejoin="round"/>
    <path d="M15.8392 45.846C15.7346 46.3578 15.4954 46.8447 15.1215 47.2427C14.0833 48.3476 12.3999 48.3476 11.3617 47.2427C10.3235 46.1378 10.3235 44.3463 11.3617 43.2414C12.3999 42.1364 14.0833 42.1364 15.1215 43.2414C15.4951 43.6389 15.7342 44.1253 15.8389 44.6366" stroke="white" stroke-width="0.5" stroke-miterlimit="10" stroke-linecap="round" stroke-linejoin="round"/>
    <path d="M4.29414 46.869C3.92459 46.869 3.625 46.5502 3.625 46.1569V44.502C3.625 44.1087 3.92459 43.7898 4.29414 43.7898C4.66368 43.7898 4.96327 44.1087 4.96327 44.502V46.1569C4.96327 46.5502 4.66368 46.869 4.29414 46.869Z" stroke="white" stroke-width="0.5" stroke-miterlimit="10" stroke-linecap="round" stroke-linejoin="round"/>
    <path d="M4.96327 45.624H3.625" stroke="white" stroke-width="0.5" stroke-miterlimit="10" stroke-linecap="round" stroke-linejoin="round"/>
    <path d="M11.1311 39.6277V38.4758C11.1311 37.662 10.509 37 9.74435 37H6.9961C6.23145 37 5.60938 37.662 5.60938 38.4758V39.6277" stroke="white" stroke-width="0.5" stroke-miterlimit="10" stroke-linecap="round" stroke-linejoin="round"/>
    <path d="M6.60742 39.6277V38.4758C6.60742 38.2477 6.78181 38.0621 6.99615 38.0621H9.74441C9.95875 38.0621 10.1332 38.2477 10.1332 38.4758V39.6277" stroke="white" stroke-width="0.5" stroke-miterlimit="10" stroke-linecap="round" stroke-linejoin="round"/>
    <path d="M15.1108 2.56V18.54C15.1108 20.92 14.3855 22.6767 12.9348 23.81C11.5068 24.9433 9.58015 25.51 7.15482 25.51C5.77215 25.51 4.45749 25.1473 3.21082 24.422C1.96415 23.6967 1.34082 22.8353 1.34082 21.838C1.34082 21.4527 1.46549 21.0107 1.71482 20.512L3.75482 16.568L4.97882 16.942L4.67282 19.05C4.58215 19.8433 4.53682 20.5913 4.53682 21.294C4.53682 21.9967 4.77482 22.6087 5.25082 23.13C5.74949 23.6513 6.40682 23.912 7.22282 23.912C8.06149 23.912 8.73015 23.6287 9.22882 23.062C9.75015 22.4953 10.0108 21.6453 10.0108 20.512V2.56H6.78082V1.2H17.1508V2.56H15.1108ZM20.8961 13.134C20.8961 9.53 21.8708 6.56067 23.8201 4.226C25.7921 1.86867 28.5914 0.690002 32.2181 0.690002C35.8674 0.690002 38.6781 1.85733 40.6501 4.192C42.6221 6.52667 43.6081 9.50733 43.6081 13.134C43.6081 16.738 42.6221 19.7073 40.6501 22.042C38.6781 24.354 35.8674 25.51 32.2181 25.51C28.5914 25.51 25.7921 24.354 23.8201 22.042C21.8708 19.7073 20.8961 16.738 20.8961 13.134ZM32.2521 2.288C30.9148 2.288 29.7814 2.80933 28.8521 3.852C27.0614 5.80133 26.1661 8.89533 26.1661 13.134C26.1661 17.35 27.0614 20.4213 28.8521 22.348C29.8041 23.3907 30.9374 23.912 32.2521 23.912C34.2014 23.912 35.6974 22.8693 36.7401 20.784C37.8054 18.6987 38.3381 16.1487 38.3381 13.134C38.3381 10.0967 37.8054 7.53533 36.7401 5.45C35.6974 3.342 34.2014 2.288 32.2521 2.288Z" fill="white"/>
    <path d="M47.6738 2.56V1.2H55.8338C62.9284 1.2 66.4758 3.35333 66.4758 7.66C66.4758 10.652 64.7191 12.6013 61.2058 13.508V13.746C65.3991 14.3807 67.4958 16.1033 67.4958 18.914C67.4958 20.954 66.5664 22.484 64.7078 23.504C62.8491 24.5013 60.2311 25 56.8538 25H47.6738V23.64H49.7138V2.56H47.6738ZM56.5138 14.358H54.8138V23.64H56.5138C58.1458 23.64 59.5058 23.232 60.5938 22.416C61.6818 21.6 62.2258 20.4667 62.2258 19.016C62.2258 17.5427 61.6818 16.398 60.5938 15.582C59.5058 14.766 58.1458 14.358 56.5138 14.358ZM55.7998 2.56H54.8138V13.066H55.7998C57.4091 13.066 58.7351 12.59 59.7778 11.638C60.8431 10.686 61.3758 9.38267 61.3758 7.728C61.3758 6.07333 60.8431 4.804 59.7778 3.92C58.7351 3.01333 57.4091 2.56 55.7998 2.56ZM87.012 25H71.746V23.64H73.786V2.56H71.746V1.2H86.332C86.8307 1.2 87.1934 1.22267 87.42 1.268C87.6694 1.29067 87.896 1.41533 88.1 1.642C88.304 1.846 88.406 2.17467 88.406 2.628L87.488 8.34H86.162L85.482 4.974C85.278 3.954 84.8927 3.29667 84.326 3.002C83.782 2.70733 82.762 2.56 81.266 2.56H78.886V14.188H86.706V15.718H78.886V23.64H81.946C83.4194 23.64 84.428 23.4927 84.972 23.198C85.5387 22.9033 85.9354 22.246 86.162 21.226L86.842 18.2H88.168L89.086 23.572C89.086 24.0253 88.984 24.3653 88.78 24.592C88.576 24.796 88.3494 24.9207 88.1 24.966C87.8734 24.9887 87.5107 25 87.012 25ZM95.5081 20.614C95.5081 21.498 95.9387 22.2687 96.8001 22.926C97.6614 23.5833 98.7721 23.912 100.132 23.912C101.492 23.912 102.569 23.5833 103.362 22.926C104.156 22.2687 104.552 21.396 104.552 20.308C104.552 18.9253 103.725 17.7807 102.07 16.874L97.0381 14.188C94.1367 12.624 92.6861 10.3913 92.6861 7.49C92.6861 5.63133 93.3661 4.03333 94.7261 2.696C96.0861 1.35867 98.1147 0.690002 100.812 0.690002C102.626 0.690002 104.348 1.05267 105.98 1.778C107.612 2.50333 108.428 3.36467 108.428 4.362C108.428 4.74733 108.304 5.18933 108.054 5.688L106.422 8.816L105.232 8.442V5.586C105.232 4.566 104.779 3.76133 103.872 3.172C102.988 2.58267 101.923 2.288 100.676 2.288C99.4521 2.288 98.5114 2.65067 97.8541 3.376C97.1967 4.10133 96.8681 4.92867 96.8681 5.858C96.8681 7.71667 97.7067 9.088 99.3841 9.972L103.702 12.25C106.989 13.9727 108.632 16.2393 108.632 19.05C108.632 21.1807 107.828 22.79 106.218 23.878C104.632 24.966 102.614 25.51 100.166 25.51C98.3301 25.51 96.5621 25.1473 94.8621 24.422C93.1621 23.6967 92.3121 22.8353 92.3121 21.838C92.3121 21.4527 92.4367 21.0107 92.6861 20.512L94.3181 17.384L95.5081 17.758V20.614Z" fill="white"/>
  </g>
  <defs>
    <clipPath id="clip0_271_4091">
      <rect width="155" height="54" fill="white" transform="translate(0.000976562)"/>
    </clipPath>
  </defs>
</svg>